<svg width="27" height="24" viewBox="0 0 27 24" fill="none" xmlns="http://www.w3.org/2000/svg">
<path d="M1.6875 22C1.6875 22.9492 2.42578 23.6875 3.375 23.6875H11.8125V15.25H1.6875V22ZM15.1875 23.6875H23.625C24.5215 23.6875 25.3125 22.9492 25.3125 22V15.25H15.1875V23.6875ZM25.3125 6.8125H23.0449C23.4141 6.17969 23.625 5.49414 23.625 4.70312C23.625 2.17188 21.5156 0.0625 18.9844 0.0625C16.7695 0.0625 15.3457 1.22266 13.5527 3.70117C11.707 1.22266 10.2832 0.0625 8.12109 0.0625C5.53711 0.0625 3.48047 2.17188 3.48047 4.70312C3.48047 5.49414 3.63867 6.17969 4.00781 6.8125H1.6875C0.738281 6.8125 0 7.60352 0 8.5V12.7188C0 13.1934 0.369141 13.5625 0.84375 13.5625H26.1562C26.5781 13.5625 27 13.1934 27 12.7188V8.5C27 7.60352 26.209 6.8125 25.3125 6.8125ZM8.06836 6.8125C6.9082 6.8125 5.95898 5.91602 5.95898 4.70312C5.95898 3.54297 6.9082 2.59375 8.06836 2.59375C9.12305 2.59375 9.91406 2.80469 12.6562 6.8125H8.06836ZM18.9844 6.8125H14.3965C17.1387 2.80469 17.877 2.59375 18.9844 2.59375C20.1445 2.59375 21.0938 3.54297 21.0938 4.70312C21.0938 5.91602 20.1445 6.8125 18.9844 6.8125Z" fill="white"/>
</svg>
