<svg width="31" height="28" viewBox="0 0 31 28" fill="none" xmlns="http://www.w3.org/2000/svg">
<path d="M30.6875 13.0312C30.6875 11.8184 30.002 10.7109 29 10.1309V2.11523C29 1.64062 28.6309 0.375 27.3125 0.375C26.8906 0.375 26.5215 0.533203 26.2578 0.796875L21.7227 4.38281C19.5078 6.17578 16.6602 7.125 13.8125 7.125H3.6875C1.78906 7.125 0.3125 8.6543 0.3125 10.5V15.5625C0.3125 17.4609 1.78906 18.9375 3.6875 18.9375H5.42773C5.375 19.5176 5.32227 20.0977 5.32227 20.625C5.32227 22.7344 5.79688 24.7383 6.69336 26.4785C6.95703 27.0586 7.53711 27.375 8.16992 27.375H12.0723C13.4434 27.375 14.2871 25.8457 13.4434 24.7383C12.5996 23.5781 12.0723 22.207 12.0723 20.625C12.0723 20.0449 12.1777 19.5176 12.2832 18.9375H13.8125C16.6602 18.9375 19.5078 19.9395 21.7227 21.7324L26.2578 25.3184C26.5215 25.582 26.8906 25.6875 27.2598 25.6875C28.5781 25.6875 28.9473 24.5273 28.9473 24V15.9844C30.002 15.4043 30.6875 14.2969 30.6875 13.0312ZM25.625 20.5195L23.832 19.0957C20.9844 16.8281 17.4512 15.5625 13.8125 15.5625V10.5C17.4512 10.5 20.9844 9.28711 23.832 7.01953L25.625 5.5957V20.5195Z" fill="white"/>
</svg>
