<svg width="24" height="28" viewBox="0 0 24 28" fill="none" xmlns="http://www.w3.org/2000/svg">
<path d="M12 13.875C15.6914 13.875 18.75 10.8691 18.75 7.125C18.75 3.43359 15.6914 0.375 12 0.375C8.25586 0.375 5.25 3.43359 5.25 7.125C5.25 10.8691 8.25586 13.875 12 13.875ZM17.0098 15.6152L14.5312 25.6875L12.8438 18.5156L14.5312 15.5625H9.46875L11.1562 18.5156L9.46875 25.6875L6.9375 15.6152C3.14062 15.7734 0.1875 18.8848 0.1875 22.6816V24.8438C0.1875 26.2676 1.29492 27.375 2.71875 27.375H21.2812C22.6523 27.375 23.8125 26.2676 23.8125 24.8438V22.6816C23.8125 18.8848 20.8066 15.7734 17.0098 15.6152Z" fill="white"/>
</svg>
